<?xml version="1.0" standalone="no"?>
<!DOCTYPE svg PUBLIC "-//W3C//DTD SVG 20010904//EN"
 "http://www.w3.org/TR/2001/REC-SVG-20010904/DTD/svg10.dtd">
<svg version="1.0" xmlns="http://www.w3.org/2000/svg"
 width="1200.000000pt" height="1200.000000pt" viewBox="0 0 1200.000000 1200.000000"
 preserveAspectRatio="xMidYMid meet">
<metadata>
Created by potrace 1.14, written by Peter Selinger 2001-2017
</metadata>
<g transform="translate(0.000000,1200.000000) scale(0.100000,-0.100000)"
fill="#000000" stroke="none">
<path d="M0 6000 l0 -6000 6000 0 6000 0 0 6000 0 6000 -6000 0 -6000 0 0
-6000z m4293 4869 c184 -66 370 -185 521 -334 469 -461 581 -1155 286 -1773
-87 -182 -160 -293 -352 -530 -100 -124 -201 -279 -253 -385 -151 -314 -121
-606 107 -1034 l59 -113 -35 0 c-97 0 -295 64 -421 135 -449 256 -665 764
-555 1307 59 288 167 507 427 866 148 204 239 386 290 582 34 130 42 358 19
515 -28 194 -109 480 -209 737 l-26 67 32 -6 c18 -3 67 -18 110 -34z m1598 15
c361 -114 684 -396 864 -755 49 -96 110 -284 129 -394 59 -337 8 -667 -154
-1000 -75 -154 -145 -259 -311 -470 -284 -361 -371 -547 -372 -800 0 -190 52
-369 184 -624 38 -73 69 -136 69 -139 0 -11 -135 10 -217 34 -293 84 -554 304
-693 583 -139 276 -162 621 -64 958 63 218 158 398 355 674 143 201 218 329
274 470 143 356 113 754 -101 1330 -30 81 -54 149 -54 153 0 9 1 9 91 -20z
m1664 -6 c198 -65 382 -183 555 -357 227 -229 354 -465 417 -776 22 -113 25
-421 4 -535 -52 -286 -177 -562 -366 -810 -49 -65 -131 -172 -182 -238 -301
-395 -360 -671 -227 -1055 33 -94 128 -296 177 -376 l21 -34 -70 6 c-131 13
-306 76 -439 159 -142 89 -288 240 -374 386 -215 362 -215 842 -1 1290 65 137
132 245 246 402 168 230 251 379 309 553 37 113 65 277 65 386 0 230 -70 544
-195 878 -30 80 -55 148 -55 150 0 5 45 -6 115 -29z m2511 -4671 c77 -36 154
-113 191 -192 28 -60 28 -62 28 -260 -2 -863 -333 -1787 -893 -2493 -288 -363
-642 -687 -1002 -919 -49 -32 -90 -62 -90 -66 0 -5 10 -22 21 -39 12 -16 30
-57 40 -90 68 -217 -64 -439 -289 -487 -38 -8 -595 -11 -1990 -11 -1719 0
-1945 2 -1997 16 -152 39 -255 150 -286 307 -16 80 1 177 46 251 l33 56 -100
66 c-441 289 -870 710 -1166 1147 -433 639 -669 1325 -723 2100 -15 215 -9
334 20 409 38 99 137 190 244 224 34 10 737 12 3947 11 l3905 -2 61 -28z"/>
</g>
</svg>
